<svg xmlns="http://www.w3.org/2000/svg">
  <defs>
    <style>.s{fill:none;stroke:currentColor;stroke-width:1.8;stroke-linecap:round;stroke-linejoin:round}</style>
    <symbol id="i-fleet" viewBox="0 0 24 24"><path class="s" d="M5 8h5v5H5zM14 4h5v5h-5zM14 15h5v5h-5zM10 10.5h2.5a3 3 0 0 0 3-3M10 10.5h2.5a3 3 0 0 1 3 3V15M3 18h8"/></symbol>
    <symbol id="i-package" viewBox="0 0 24 24"><path class="s" d="m4 7 8-4 8 4-8 4-8-4Zm0 0v10l8 4 8-4V7M12 11v10M8 5l8 4"/></symbol>
    <symbol id="i-value" viewBox="0 0 24 24"><path class="s" d="m12 3 7 6-7 12L5 9l7-6Zm-7 6h14M9 3l3 6 3-6M9 9l3 12 3-12"/></symbol>
    <symbol id="i-fragile" viewBox="0 0 24 24"><path class="s" d="M7 3h10l-1 7a4 4 0 0 1-8 0L7 3Zm5 11v7m-4 0h8M9 7h6"/></symbol>
    <symbol id="i-medical" viewBox="0 0 24 24"><path class="s" d="M9 4h6v5h5v6h-5v5H9v-5H4V9h5V4Z"/></symbol>
    <symbol id="i-warehouse" viewBox="0 0 24 24"><path class="s" d="m3 9 9-6 9 6v12H3V9Zm4 12v-8h10v8M7 16h10M7 19h10"/></symbol>
    <symbol id="i-route" viewBox="0 0 24 24"><path class="s" d="M5 6a2 2 0 1 0 0-4 2 2 0 0 0 0 4Zm14 16a2 2 0 1 0 0-4 2 2 0 0 0 0 4ZM5 6v3c0 3 2 4 5 4h4c3 0 5 1 5 4v1m-3-3 3 3 3-3"/></symbol>
    <symbol id="i-conflict" viewBox="0 0 24 24"><path class="s" d="M4 5h5c5 0 5 14 10 14h1m-3-3 3 3-3 3M4 19h5c2.5 0 3.7-3.5 5-7 1.3-3.5 2.5-7 5-7h1m-3-3 3 3-3 3"/></symbol>
    <symbol id="i-yield" viewBox="0 0 24 24"><path class="s" d="M12 3 2.8 19h18.4L12 3Zm0 5v5m0 3v.2"/></symbol>
    <symbol id="i-battery" viewBox="0 0 24 24"><path class="s" d="M3 7h16v10H3V7Zm16 3h2v4h-2M6 10h7m-7 4h10"/></symbol>
    <symbol id="i-health" viewBox="0 0 24 24"><path class="s" d="M12 20S4 16 4 9a4 4 0 0 1 7-2.6L12 8l1-1.6A4 4 0 0 1 20 9c0 7-8 11-8 11Zm-5-8h3l1.5-3 2 6 1.5-3h2"/></symbol>
    <symbol id="i-vault" viewBox="0 0 24 24"><path class="s" d="M4 3h16v18H4V3Zm4 4h8v10H8V7Zm4 3a2 2 0 1 0 0 4 2 2 0 0 0 0-4Zm0-3v3m0 4v3M8 12h2m4 0h2"/></symbol>
    <symbol id="i-dispatch" viewBox="0 0 24 24"><path class="s" d="m3 11 18-8-8 18-2-8-8-2Zm8 2 5-5"/></symbol>
    <symbol id="i-analytics" viewBox="0 0 24 24"><path class="s" d="M4 20V10m5 10V4m6 16v-7m5 7V7M2 20h20"/></symbol>
    <symbol id="i-recovery" viewBox="0 0 24 24"><path class="s" d="M4 11a8 8 0 1 1 2 6m-2 3v-6h6M9 12l2 2 4-5"/></symbol>
    <symbol id="i-priority" viewBox="0 0 24 24"><path class="s" d="m12 3 9 16H3L12 3Zm0 5v5m0 3v.2"/></symbol>
    <symbol id="i-queue" viewBox="0 0 24 24"><path class="s" d="M8 6h12M8 12h12M8 18h12M3 6h.2M3 12h.2M3 18h.2"/></symbol>
    <symbol id="i-complete" viewBox="0 0 24 24"><path class="s" d="M21 11v1a9 9 0 1 1-5.3-8.2M8 11l3 3L21 4"/></symbol>
    <symbol id="i-failure" viewBox="0 0 24 24"><path class="s" d="M12 3 2.8 20h18.4L12 3Zm-3 7 6 6m0-6-6 6"/></symbol>
    <symbol id="i-focus" viewBox="0 0 24 24"><path class="s" d="M8 3H3v5m13-5h5v5M8 21H3v-5m13 5h5v-5"/></symbol>
    <symbol id="i-pause" viewBox="0 0 24 24"><path class="s" d="M8 5v14m8-14v14"/></symbol>
  </defs>
</svg>
